<svg id="GMA-logo-stacked-negative" xmlns="http://www.w3.org/2000/svg" width="344.957" height="122.199" viewBox="0 0 344.957 122.199">
  <g id="Group_874" data-name="Group 874" transform="translate(-216.501 -239.036)">
    <path id="Path_16516" data-name="Path 16516" d="M228.584,355.059h-4.977v-1.318h6.41a5.962,5.962,0,0,1,.039.794,6.3,6.3,0,0,1-6.584,6.661,6.8,6.8,0,0,1-6.971-6.97,6.883,6.883,0,0,1,7.029-6.971,6,6,0,0,1,6.157,4.492h-1.51c-.367-1.724-2.168-3.137-4.647-3.137a5.387,5.387,0,0,0-5.519,5.616,5.308,5.308,0,0,0,5.461,5.615A4.851,4.851,0,0,0,228.584,355.059Z" fill="#a3a3a3"/>
    <path id="Path_16517" data-name="Path 16517" d="M247.632,354.226a6.971,6.971,0,1,1-6.971-6.971A6.918,6.918,0,0,1,247.632,354.226Zm-1.51,0a5.463,5.463,0,1,0-5.461,5.615A5.42,5.42,0,0,0,246.122,354.226Z" fill="#a3a3a3"/>
    <path id="Path_16518" data-name="Path 16518" d="M252.679,361h-1.433V347.448h5.945c3,0,4.686,1.569,4.686,4.163a4.123,4.123,0,0,1-3.95,4.241L261.993,361h-1.665l-4.009-5.112h-3.64Zm4.279-6.429c2.227,0,3.447-1.007,3.447-2.9,0-1.917-1.181-2.886-3.447-2.886h-4.279v5.79Z" fill="#a3a3a3"/>
    <path id="Path_16519" data-name="Path 16519" d="M270.121,361h-4.532V347.448h4.57c4.279,0,7.145,2.827,7.145,6.739C277.3,358.137,274.438,361,270.121,361Zm0-1.356c3.659,0,5.653-2.246,5.653-5.46,0-3.176-1.994-5.383-5.615-5.383h-3.137v10.843Z" fill="#a3a3a3"/>
    <path id="Path_16520" data-name="Path 16520" d="M294.861,354.226a6.971,6.971,0,1,1-6.97-6.971A6.917,6.917,0,0,1,294.861,354.226Zm-1.51,0a5.463,5.463,0,1,0-5.46,5.615A5.42,5.42,0,0,0,293.351,354.226Z" fill="#a3a3a3"/>
    <path id="Path_16521" data-name="Path 16521" d="M299.793,347.409l8.656,11.328V347.448h1.413v13.593h-1.3l-8.656-11.327V361H298.5V347.409Z" fill="#a3a3a3"/>
    <path id="Path_16522" data-name="Path 16522" d="M321.008,350.934V361h-2.014V347.429h2l5.286,8.887,5.286-8.887h1.975V361h-2.053v-10.05l-4.472,7.571H325.5Z" fill="#a3a3a3"/>
    <path id="Path_16523" data-name="Path 16523" d="M337.131,355.5v-8.056h2.053v7.784c0,2.769,1.452,4.067,3.7,4.067s3.7-1.3,3.7-4.067v-7.784h2.033V355.5c0,3.8-2.5,5.712-5.751,5.712S337.131,359.3,337.131,355.5Z" fill="#a3a3a3"/>
    <path id="Path_16524" data-name="Path 16524" d="M354.243,361H352.21V347.448h6.022c3.176,0,4.918,1.724,4.918,4.319a4.186,4.186,0,0,1-3.756,4.279L363.247,361h-2.324l-3.776-4.841h-2.9Zm3.737-6.681c2.014,0,3.079-.89,3.079-2.517s-1.045-2.5-3.079-2.5h-3.737v5.014Z" fill="#a3a3a3"/>
    <path id="Path_16525" data-name="Path 16525" d="M368.857,361h-2.033V347.448h6.022c3.176,0,4.919,1.724,4.919,4.319a4.186,4.186,0,0,1-3.757,4.279L377.861,361h-2.323l-3.776-4.841h-2.9Zm3.738-6.681c2.013,0,3.078-.89,3.078-2.517s-1.045-2.5-3.078-2.5h-3.738v5.014Z" fill="#a3a3a3"/>
    <path id="Path_16526" data-name="Path 16526" d="M390.4,357.614h-6.641L382.33,361h-2.072l5.945-13.594h1.819L393.948,361h-2.092Zm-5.847-1.879h5.053l-2.517-5.964Z" fill="#a3a3a3"/>
    <path id="Path_16527" data-name="Path 16527" d="M399.945,353.916l4.163-6.468h2.3l-5.461,8.385V361h-2.033v-5.151l-5.441-8.4H395.8Z" fill="#a3a3a3"/>
    <path id="Path_16528" data-name="Path 16528" d="M421.839,358.233h-5.906L414.849,361h-3.176l5.712-13.574h3.079L426.157,361h-3.215Zm-4.783-2.807h3.679L418.9,350.8Z" fill="#a3a3a3"/>
    <path id="Path_16529" data-name="Path 16529" d="M428.9,355.484v-8.036h3.119v7.668c0,2.285,1.064,3.2,2.865,3.2s2.886-.911,2.886-3.2v-7.668h3.078v8.036c0,3.931-2.653,5.751-5.984,5.751C431.554,361.235,428.9,359.415,428.9,355.484Z" fill="#a3a3a3"/>
    <path id="Path_16530" data-name="Path 16530" d="M455.539,350.256h-4.008V361h-3.079V350.256h-4.008v-2.808h11.1Z" fill="#a3a3a3"/>
    <path id="Path_16531" data-name="Path 16531" d="M472.516,354.226a7.156,7.156,0,1,1-7.145-7.01A7,7,0,0,1,472.516,354.226Zm-3.175,0a3.971,3.971,0,1,0-3.97,4.046A3.933,3.933,0,0,0,469.341,354.226Z" fill="#a3a3a3"/>
    <path id="Path_16532" data-name="Path 16532" d="M479.21,352.58V361h-3.079V347.429h3.04l4.589,7.977,4.59-7.977h3V361h-3.1v-8.385l-3.37,6.023H482.6Z" fill="#a3a3a3"/>
    <path id="Path_16533" data-name="Path 16533" d="M509.255,354.226a7.156,7.156,0,1,1-7.145-7.01A7,7,0,0,1,509.255,354.226Zm-3.175,0a3.97,3.97,0,1,0-3.97,4.046A3.933,3.933,0,0,0,506.08,354.226Z" fill="#a3a3a3"/>
    <path id="Path_16534" data-name="Path 16534" d="M523.035,350.256h-4.008V361h-3.079V350.256H511.94v-2.808h11.095Z" fill="#a3a3a3"/>
    <path id="Path_16535" data-name="Path 16535" d="M529.731,361h-3.1V347.448h3.1Z" fill="#a3a3a3"/>
    <path id="Path_16536" data-name="Path 16536" d="M540.514,357.053l3.678-9.605h3.37l-5.519,13.574h-3.117l-5.5-13.574h3.428Z" fill="#a3a3a3"/>
    <path id="Path_16537" data-name="Path 16537" d="M551.2,361V347.448h10.186v2.788h-7.087v2.557h6.563v2.788h-6.563v2.633h7.164V361Z" fill="#a3a3a3"/>
  </g>
  <g id="Group_878" data-name="Group 878" transform="translate(-216.501 -239.036)">
    <g id="Group_876" data-name="Group 876">
      <g id="Group_875" data-name="Group 875">
        <path id="Path_16538" data-name="Path 16538" d="M359.73,239.036h0v88.823l58.491-.019v-88.8Zm27.662,87.034H361.5V240.806h25.893Zm2.3,0H388.26V240.806h1.428Zm26.763,0H390.557V240.806h25.894Z" fill="#a3a3a3"/>
        <rect id="Rectangle_166" data-name="Rectangle 166" width="25.893" height="85.264" transform="translate(361.499 240.806)" fill="none" style="isolation: isolate"/>
        <rect id="Rectangle_167" data-name="Rectangle 167" width="25.894" height="85.264" transform="translate(390.557 240.806)" fill="none" style="isolation: isolate"/>
      </g>
      <rect id="Rectangle_168" data-name="Rectangle 168" width="1.428" height="85.264" transform="translate(388.261 240.806)" fill="none"/>
    </g>
    <g id="Group_877" data-name="Group 877">
      <path id="Path_16539" data-name="Path 16539" d="M381.5,261.956h0Z" fill="none"/>
      <path id="Path_16540" data-name="Path 16540" d="M396.861,275.647a3.014,3.014,0,0,1,2.876-1.931h10.437V256.611a.989.989,0,0,0-1.188.764c-.009.044-.539,3.864-.556,3.846a1.472,1.472,0,0,0-2.21-.187l1.835,1.92s-1.049,7.742-1.065,7.748c-7.061-1.842-12.3-2.274-14.982-1.283l-.838-3.124h8.171a3.59,3.59,0,0,0,3.59-3.591h-9.144a6.317,6.317,0,0,0,.429-1.09h8.532a3.59,3.59,0,0,0,3.59-3.591H394.22a6.381,6.381,0,0,0-.424-1.09h12.349a3.592,3.592,0,0,0,3.591-3.591H387.555c-3.4,0-4.617,1.388-5.311,2.431a4.615,4.615,0,0,0-.717,2.672,3.652,3.652,0,0,1,.067.922c-.011.031-.062.125-.067.134l-1.237,2.067,1.208.389v0h0l-.553,1.052.667.421c-.02.017-.445.7-.445.7s.611.555.671.635c.089.11-.094.41-.094.9a.628.628,0,0,0,.684.63h4.149l-1.541.646.7,2.7v0c-1.98-.909-7.1-1.1-14.886,1l-1.056-7.974s3.192.021,3.192-.005a1.178,1.178,0,0,0-.375-.966,4.2,4.2,0,1,0-4.86-4.209v16.237H381.7a4.132,4.132,0,0,0,.529,5.806l1.468,5.839c-3.753,1.606-8.55,7.7-3.04,15.151,0-.043-1.015.968-1.015.931-3.056-2.885-5.629-11.991,2.436-16.706,0-.038-.676-2.315-.676-2.307-7.567,1.341-13.547,7.636-13.547,15.456,0,8.653,7.312,15.666,16.334,15.666s16.344-7.013,16.344-15.666a15.807,15.807,0,0,0-6.519-12.525l2.77-9.5C396.808,275.784,396.835,275.717,396.861,275.647Z" fill="#a3a3a3"/>
      <path id="Path_16541" data-name="Path 16541" d="M381.5,261.956h0Z" fill="none"/>
      <path id="Path_16542" data-name="Path 16542" d="M371.944,260.05a2.509,2.509,0,1,0-2.508-2.511A2.5,2.5,0,0,0,371.944,260.05Z" fill="#e1001e"/>
      <path id="Path_16543" data-name="Path 16543" d="M395.822,283.972c7.384,2.822,14.34-2.667,14.343-2.644.067.64.185,2.848-1.705,6.034a6.445,6.445,0,0,1-3.6,2.7,7.455,7.455,0,0,1,4.3,4.165,24.054,24.054,0,0,1,.847,7.432c-5.18-6.941-8.633-7.76-8.65-7.826a17.529,17.529,0,0,0-5.865-9.063Z" fill="#a3a3a3"/>
      <path id="Path_16544" data-name="Path 16544" d="M399.141,285.743l-.173.718c1.77.424,7.564,0,9.178-1.9l-.562-.478C406.217,285.691,400.776,286.137,399.141,285.743Z" fill="#747474"/>
      <path id="Path_16545" data-name="Path 16545" d="M400.08,287.407l-.126.726c1.349.235,5.846-.081,6.886-.86l-.441-.591C405.591,287.286,401.372,287.632,400.08,287.407Z" fill="#747474"/>
      <path id="Path_16546" data-name="Path 16546" d="M401.814,292.714a15.992,15.992,0,0,1,6.24,4.952l.612-.415c-.027-.036-2.825-3.83-6.595-5.229Z" fill="#747474"/>
      <path id="Path_16547" data-name="Path 16547" d="M401.567,291.3a8.115,8.115,0,0,1,5.85,3.552l.605-.424a8.86,8.86,0,0,0-6.4-3.863Z" fill="#747474"/>
      <rect id="Rectangle_169" data-name="Rectangle 169" width="0.739" height="1.947" transform="translate(400.77 289.643) rotate(-84.236)" fill="#747474"/>
      <path id="Path_16548" data-name="Path 16548" d="M389.575,295.794l-3.949-2.581-.4.617,4.338,2.837,4.652-2.824-.383-.631S389.938,295.575,389.575,295.794Z" fill="#747474"/>
      <path id="Path_16549" data-name="Path 16549" d="M389.806,301.059l-3.138-2-.4.623,3.52,2.239,3.782-2.239-.375-.634S390.155,300.851,389.806,301.059Z" fill="#747474"/>
      <path id="Path_16550" data-name="Path 16550" d="M389.745,305.505l-2.525-1.484-.373.637,2.889,1.7,3.038-1.691-.358-.646Z" fill="#747474"/>
      <path id="Path_16551" data-name="Path 16551" d="M395.712,297.882c-.331-.208-2.629-1.66-2.629-1.66l-.4.623,3.01,1.9,3.229-1.9-.375-.635Z" fill="#747474"/>
      <path id="Path_16552" data-name="Path 16552" d="M383.266,297.815c-.318-.186-2.624-1.545-2.624-1.545l-.375.637,2.987,1.758,3.222-1.78-.358-.646Z" fill="#747474"/>
      <path id="Path_16553" data-name="Path 16553" d="M395.446,302.915l-2.406-1.4-.371.637,2.765,1.615,2.992-1.638-.354-.649Z" fill="#747474"/>
      <path id="Path_16554" data-name="Path 16554" d="M372.689,295.47l-2.407-1.365-.363.643,2.759,1.563,2.982-1.593-.347-.652Z" fill="#747474"/>
      <path id="Path_16555" data-name="Path 16555" d="M373.3,292.394l-2.136-1.284-.38.631,2.5,1.506,2.694-1.517-.361-.643Z" fill="#747474"/>
      <path id="Path_16556" data-name="Path 16556" d="M374.636,289.388l-1.764-1.124-.4.622,2.145,1.368,2.294-1.362-.375-.634S374.956,289.2,374.636,289.388Z" fill="#747474"/>
      <path id="Path_16557" data-name="Path 16557" d="M394.312,306.9c-.285-.156-1.82-.988-1.82-.988l-.351.648,2.163,1.174,2.342-1.2-.337-.658Z" fill="#747474"/>
      <path id="Path_16558" data-name="Path 16558" d="M373.786,302.105l-3.64-1.466-.276.684,3.932,1.583,3.676-1.649-.3-.674Z" fill="#747474"/>
      <path id="Path_16559" data-name="Path 16559" d="M372.6,298.963l-2.95-1.665-.364.643,3.3,1.863,3.573-1.9-.347-.652S372.923,298.794,372.6,298.963Z" fill="#747474"/>
      <path id="Path_16560" data-name="Path 16560" d="M375.2,308.791l2.857,1.673,2.736-1.653-.383-.631-2.359,1.426-2.477-1.452Z" fill="#747474"/>
      <path id="Path_16561" data-name="Path 16561" d="M383.506,303.093l-2.123-1.3-.386.629,2.5,1.536,2.777-1.6-.368-.64Z" fill="#747474"/>
      <path id="Path_16562" data-name="Path 16562" d="M383.751,307.2c-.287-.157-1.825-.99-1.825-.99l-.352.648,2.169,1.177,2.338-1.2-.339-.658Z" fill="#747474"/>
      <path id="Path_16563" data-name="Path 16563" d="M383.944,310.886l-1.825-.988-.352.648,2.168,1.174,2.338-1.2-.337-.657Z" fill="#747474"/>
      <path id="Path_16564" data-name="Path 16564" d="M389.719,309.559l-1.825-.989-.352.648,2.168,1.177,2.338-1.2-.337-.657Z" fill="#747474"/>
      <path id="Path_16565" data-name="Path 16565" d="M376.139,305.912l-4.587-1.877-.28.683,4.9,2,4.361-2.184-.33-.661Z" fill="#747474"/>
      <path id="Path_16566" data-name="Path 16566" d="M376.976,286.383l-1.592-.8-.329.66,1.913.957,2.079-.992-.317-.665Z" fill="#747474"/>
    </g>
  </g>
</svg>
